<?xml version="1.0" standalone="no"?>
<!DOCTYPE svg PUBLIC "-//W3C//DTD SVG 20010904//EN"
 "http://www.w3.org/TR/2001/REC-SVG-20010904/DTD/svg10.dtd">
<svg version="1.0" xmlns="http://www.w3.org/2000/svg"
 width="490.000000pt" height="490.000000pt" viewBox="0 0 490.000000 490.000000"
 preserveAspectRatio="xMidYMid meet">
<metadata>
Created by potrace 1.14, written by Peter Selinger 2001-2017
</metadata>
<g transform="translate(0.000000,490.000000) scale(0.100000,-0.100000)"
fill="#000000" stroke="none">
<path d="M2405 4539 c-345 -36 -662 -255 -818 -564 -59 -118 -108 -304 -123
-470 -4 -43 -13 -94 -20 -112 -18 -43 -18 -105 1 -150 13 -30 15 -120 15 -594
l0 -559 -179 0 c-160 0 -181 -2 -202 -19 -30 -24 -33 39 41 -842 33 -394 60
-731 60 -748 l0 -31 -280 0 c-267 0 -281 -1 -300 -20 -29 -29 -26 -74 6 -99
l27 -21 1822 0 1822 0 27 21 c32 25 35 70 6 99 -19 19 -33 20 -271 20 l-251 0
5 33 c3 17 34 375 68 794 l63 763 -24 25 c-23 25 -26 25 -172 25 l-148 0 0
558 c1 464 3 561 15 582 19 33 19 131 0 177 -8 19 -15 57 -15 83 0 130 -44
316 -105 445 -161 338 -474 563 -845 605 -95 11 -111 11 -225 -1z m-227 -871
c268 -198 741 -346 1033 -324 76 6 119 14 216 42 17 5 25 0 38 -26 21 -41 12
-82 -27 -115 -26 -22 -39 -25 -88 -23 -36 1 -64 -3 -74 -11 -9 -7 -25 -45 -37
-85 -85 -287 -279 -494 -557 -596 -155 -57 -257 -49 -417 30 -173 85 -309 221
-395 395 -28 55 -57 129 -66 165 -21 87 -40 105 -105 102 -101 -4 -156 66
-114 148 11 22 29 33 82 50 177 58 292 176 349 358 3 10 16 4 44 -20 22 -18
75 -59 118 -90z m231 -1304 c72 -15 95 -16 160 -6 42 6 87 15 100 18 l23 7 -3
-81 c-4 -70 -8 -86 -34 -123 -69 -97 -207 -117 -296 -42 -45 38 -68 93 -76
179 l-6 77 24 -6 c13 -3 62 -13 108 -23z m-244 -181 c10 -27 25 -58 33 -70
l14 -23 -183 0 c-100 0 -180 2 -178 5 6 5 281 133 290 134 4 1 14 -20 24 -46z
m819 -20 l149 -68 -178 -3 c-98 -1 -179 -1 -181 1 -2 2 8 25 21 52 14 26 25
57 25 67 0 10 3 18 8 18 4 0 74 -30 156 -67z m790 -280 c-3 -38 -32 -374 -63
-748 l-56 -680 -1168 -3 c-1107 -2 -1167 -1 -1167 15 0 10 -27 340 -60 733
-33 393 -60 723 -60 733 0 16 68 17 1290 17 l1290 0 -6 -67z"/>
<path d="M2150 3207 c-13 -7 -29 -25 -34 -40 -22 -61 67 -114 113 -68 53 53
-12 142 -79 108z"/>
<path d="M2834 3208 c-63 -30 -41 -128 28 -128 64 0 92 80 42 119 -30 23 -39
24 -70 9z"/>
<path d="M2560 2875 c-68 -39 -69 -39 -106 -22 -49 24 -90 22 -108 -5 -37 -52
3 -114 88 -138 125 -35 275 72 209 148 -25 28 -54 34 -83 17z"/>
<path d="M860 4254 c-86 -37 -143 -125 -143 -219 0 -135 100 -234 236 -235 32
0 72 6 90 13 85 36 147 129 147 222 0 57 -33 137 -71 172 -63 58 -183 80 -259
47z m123 -123 c42 -16 67 -51 67 -94 0 -49 -13 -73 -52 -93 -42 -22 -90 -11
-122 27 -44 52 -29 120 34 151 41 21 41 21 73 9z"/>
<path d="M3972 4087 c-46 -49 -12 -127 54 -127 39 0 74 36 74 76 0 65 -84 98
-128 51z"/>
<path d="M3950 3313 c-29 -37 -20 -67 35 -122 l44 -45 -50 -53 c-43 -46 -50
-58 -44 -81 8 -34 23 -49 57 -57 23 -6 35 1 81 44 l53 50 45 -44 c57 -57 90
-65 123 -31 38 37 33 66 -20 125 l-46 51 46 50 c52 56 58 85 23 118 -35 33
-62 27 -117 -24 l-50 -46 -51 46 c-61 55 -96 60 -129 19z"/>
<path d="M691 3264 c-12 -15 -21 -37 -21 -49 0 -38 37 -75 76 -75 45 0 74 29
74 75 0 72 -86 104 -129 49z"/>
</g>
</svg>
